HIERARCHY
ROOT Hips
{
	OFFSET -10.056300 7.733760 -472.550000
	CHANNELS 6 Xposition Yposition Zposition Zrotation Yrotation Xrotation 
	JOINT Spine
	{
		OFFSET 0.000000 0.000000 0.000000
		CHANNELS 3 Zrotation Yrotation Xrotation
		JOINT Spine1
		{
			OFFSET 19.000000 0.000000 0.000000
			CHANNELS 3 Zrotation Yrotation Xrotation
			JOINT Neck
			{
				OFFSET 22.500000 0.600000 0.000000
				CHANNELS 3 Zrotation Yrotation Xrotation
				JOINT Head
				{
					OFFSET 14.000000 0.030878 0.000000
					CHANNELS 3 Zrotation Yrotation Xrotation
					End Site
					{
						OFFSET 17.000000 0.000000 0.000000
					}
				}
			}
			JOINT LeftShoulder
			{
				OFFSET 19.800000 3.700000 4.300000
				CHANNELS 3 Zrotation Yrotation Xrotation
				JOINT LeftArm
				{
					OFFSET 8.000000 0.000000 0.000000
					CHANNELS 3 Zrotation Yrotation Xrotation
					JOINT LeftForeArm
					{
						OFFSET 15.200000 0.000000 0.000000
						CHANNELS 3 Zrotation Yrotation Xrotation
						JOINT LeftHand
						{
							OFFSET 17.800000 0.000000 0.000000
							CHANNELS 3 Zrotation Yrotation Xrotation
							End Site
							{
								OFFSET 7.200000 0.000000 0.000000
							}
						}
					}
				}
			}
			JOINT RightShoulder
			{
				OFFSET 19.800000 3.700000 -4.300000
				CHANNELS 3 Zrotation Yrotation Xrotation
				JOINT RightArm
				{
					OFFSET 8.000000 0.000000 0.151654
					CHANNELS 3 Zrotation Yrotation Xrotation
					JOINT RightForeArm
					{
						OFFSET 15.200000 0.000000 0.000000
						CHANNELS 3 Zrotation Yrotation Xrotation
						JOINT RightHand
						{
							OFFSET 17.800000 0.000000 0.000000
							CHANNELS 3 Zrotation Yrotation Xrotation
							End Site
							{
								OFFSET 7.200000 0.000000 0.000000
							}
						}
					}
				}
			}
		}
	}
	JOINT LeftUpLeg
	{
		OFFSET 5.984250 -7.666000 4.788790
		CHANNELS 3 Zrotation Yrotation Xrotation
		JOINT LeftLeg
		{
			OFFSET 16.000000 0.000000 0.000000
			CHANNELS 3 Zrotation Yrotation Xrotation
			JOINT LeftFoot
			{
				OFFSET 18.000000 0.000000 0.000000
				CHANNELS 3 Zrotation Yrotation Xrotation
				End Site
				{
					OFFSET 0.000000 -10.800000 0.000000
				}
			}
		}
	}
	JOINT RightUpLeg
	{
		OFFSET 5.984250 -7.665980 -4.788790
		CHANNELS 3 Zrotation Yrotation Xrotation
		JOINT RightLeg
		{
			OFFSET 16.000000 0.000000 0.000000
			CHANNELS 3 Zrotation Yrotation Xrotation
			JOINT RightFoot
			{
				OFFSET 18.000000 0.000000 0.000000
				CHANNELS 3 Zrotation Yrotation Xrotation
				End Site
				{
					OFFSET 0.000000 -10.800000 0.000000
				}
			}
		}
	}
	JOINT Tail
	{
		OFFSET 6.836960 -0.722574 0.000000
		CHANNELS 3 Zrotation Yrotation Xrotation
		JOINT Tail1
		{
			OFFSET 12.000000 0.000000 0.000000
			CHANNELS 3 Zrotation Yrotation Xrotation
			End Site
			{
				OFFSET 12.000000 0.000000 0.000000
			}
		}
	}
}
MOTION
Frames: 13
Frame Time: 0.033333
-0.045401 -0.035163 -0.128108 -13.391431 2.196769 14.794378 2.259933 -0.666215 -1.518925 17.448189 1.409787 -12.809148 6.154101 -0.588625 31.945528 6.154101 -0.588625 31.945528 12.735925 1.538015 27.954952 -2.942641 1.343751 -1.513697 5.422025 -2.455148 -59.083729 -0.112194 -1.401196 18.267151 -13.133905 0.607105 19.785593 4.418994 -15.365162 10.325528 13.414816 -8.442345 -56.043690 18.748749 -5.045847 -5.952902 -7.121831 4.886556 8.058651 30.066931 2.865011 21.279272 15.258820 -17.065516 -16.411747 6.010407 -13.076936 31.420046 -15.380996 -13.680509 -25.656017 -94.649857 28.017410 -70.267021 -5.396368 8.065595 10.911242 1.613040 5.361203 -2.553389 
-0.090803 -0.070327 -0.256216 -14.930584 0.414403 12.509737 2.102284 0.404546 -1.004185 17.925392 2.331926 -8.128066 5.682604 -0.974237 30.492050 5.682604 -0.974237 30.492050 13.024019 2.001472 23.262938 -2.909148 0.843779 2.822829 2.591686 -1.413959 -53.661182 -3.293235 -1.627053 16.062977 -11.757861 -0.088190 15.082742 4.787650 -13.969214 14.444476 7.195615 -6.017570 -50.261082 15.278814 -1.086830 -9.689826 -5.299027 -0.339672 8.985521 31.864698 7.927871 25.012608 21.520054 -12.635456 -26.913073 7.993837 -13.341943 27.430973 -17.288410 -8.930915 -26.419884 -109.982010 23.085646 -76.168266 -4.418816 7.542787 9.291999 2.587670 6.814673 -1.009270 
-0.116391 -0.095396 -0.325953 -16.260651 -1.439559 10.272420 1.973390 1.476758 -0.491989 18.628363 3.216553 -3.431643 5.238475 -1.376210 29.041653 5.238475 -1.376210 29.041653 13.209887 2.497293 18.570469 -2.988366 0.347386 7.158446 0.198455 0.033792 -48.311302 -6.476928 -1.973043 13.874637 -10.185396 -0.681161 10.362484 5.397387 -12.623185 18.531828 2.082540 -2.674814 -44.861057 11.081053 2.573305 -13.674899 -3.711459 -5.578512 9.754613 34.703812 12.683585 29.029924 24.997356 -7.810357 -36.644066 9.978858 -13.471256 23.437759 -19.448235 -4.259076 -27.325909 -125.814903 15.896998 -81.684128 -3.392858 7.044804 7.667403 3.686785 8.240940 0.570630 
-0.141978 -0.120466 -0.395690 -16.272270 -2.311701 9.041476 0.891125 0.753731 2.454118 18.634577 3.467185 -1.142836 7.765443 0.227675 25.664213 7.765443 0.227675 25.664213 10.727246 2.674505 11.036038 -4.028018 1.599093 13.594373 -0.956417 -1.709371 -40.242458 -7.993264 -3.728479 7.710760 -6.118400 0.034694 2.438403 3.654346 -11.261421 21.329689 -0.279208 -0.653387 -37.103344 9.658809 4.758666 -11.317843 -2.519016 -9.964847 11.982950 28.869066 12.258129 27.162535 22.248899 -6.451585 -37.768742 10.875912 -12.253019 20.604088 -18.645884 -2.329153 -25.542164 -122.353760 21.497965 -78.958145 -1.800223 6.707150 8.157897 2.563648 8.543088 -1.041549 
-0.260683 -0.100749 -0.350355 -16.227020 -3.186486 7.808738 -0.295368 0.090636 5.413015 18.670525 3.717162 1.147268 10.026876 2.009281 22.361773 10.026876 2.009281 22.361773 8.201860 2.526489 3.501214 -4.588530 2.900422 20.019674 -3.150270 -3.502296 -32.084473 -8.949778 -5.641003 1.561421 -2.438266 1.290380 -5.419487 2.144433 -9.852383 24.059875 -1.620514 1.857384 -29.424654 8.494387 7.013733 -8.996889 -1.793219 -14.351200 14.187568 23.061920 11.658484 25.368423 19.454071 -5.159272 -38.962524 11.558846 -10.969618 17.815430 -17.634607 -0.393126 -23.725386 -117.966270 27.393782 -75.938301 -0.220454 6.356796 8.637965 1.414750 8.813672 -2.661967 
-0.379388 -0.081031 -0.305019 -14.051418 -4.316069 9.129502 -0.040915 1.211299 3.758117 14.131138 4.788167 -2.988875 9.424190 1.666314 22.605190 9.424190 1.666314 22.605190 10.998457 3.961624 7.342726 -6.359714 0.996529 16.884607 1.526045 -5.203643 -32.750397 -5.489810 -5.169023 2.528790 -7.896172 0.087947 1.750094 5.462431 -8.618703 20.625763 0.452704 1.893355 -32.305599 7.363043 6.771965 -11.710181 0.691820 -13.561528 11.903156 21.917364 10.544321 22.635836 13.347806 -2.489290 -33.707672 13.553289 -9.256886 18.464136 -20.641047 -0.848809 -20.566322 -94.477203 40.708336 -65.589066 -0.238315 6.400305 8.919962 -0.039339 7.146621 -1.281639 
-0.471125 -0.132661 -0.414328 -11.956259 -5.488959 10.410397 0.116597 2.340024 2.105897 9.395513 5.519758 -7.209605 8.817965 1.326387 22.852360 8.817965 1.326387 22.852360 14.058787 5.188559 11.265643 -7.819090 -1.025133 13.810037 6.273109 -6.836647 -33.578815 -2.014725 -4.756165 3.521821 -13.652998 -0.404403 9.001987 8.537377 -7.174077 17.297569 2.447905 2.009872 -35.182808 6.272535 6.481077 -14.415588 3.064403 -12.674170 9.673717 20.961761 9.355575 19.946316 7.970205 0.822539 -28.815392 15.589145 -7.573590 19.169542 -23.772449 -1.153382 -17.384930 -66.634209 50.090401 -50.355576 -0.255446 6.443858 9.201995 -1.603837 5.514859 0.132804 
-0.562861 -0.184290 -0.523636 -8.245444 -6.392247 8.034692 -0.171737 3.304606 0.630863 5.438782 6.828043 -11.018645 5.445400 -0.384936 26.614841 5.445400 -0.384936 26.614841 16.236319 5.332844 13.333938 -8.065337 -0.281759 9.942178 7.984934 -11.311984 -24.900749 -1.473630 -8.191762 4.163220 -16.261467 0.677047 17.844608 10.994501 -6.740464 9.317833 3.204892 1.931714 -30.899498 2.905404 4.673821 -16.052261 4.162446 -13.606026 9.303059 18.123392 7.276706 15.863648 1.070328 5.125651 -22.440619 17.738886 -3.506141 19.011213 -25.522413 2.623928 -13.070522 -18.199980 49.322781 -18.671339 -2.636156 4.745708 8.518421 -2.012641 4.655076 1.187962 
-0.430190 -0.259820 -0.674934 -4.399384 -7.144832 5.595618 -0.535164 4.261073 -0.852514 1.255568 7.853012 -14.932592 1.822120 -1.829013 30.483803 1.822120 -1.829013 30.483803 18.413603 5.399641 15.407333 -8.467904 0.448965 6.070541 7.701053 -16.173449 -16.014996 -1.031797 -11.630015 4.784768 -18.151192 2.021647 26.640699 13.178097 -5.972501 1.385172 3.940990 1.794281 -26.618727 -0.259199 2.796078 -17.570236 5.290940 -14.532131 8.909911 15.762517 4.976083 11.923991 -4.585193 10.259705 -16.525755 19.870676 0.564222 19.008715 -26.415897 6.565491 -8.819629 5.264061 37.569633 -3.998342 -4.951862 3.018664 7.909354 -2.467570 3.803528 2.247047 
-0.297519 -0.335351 -0.826231 -4.182134 -4.867687 2.114125 -2.179949 1.007726 -1.200269 2.314522 8.139094 -12.741590 2.806333 -2.529349 32.704956 2.806333 -2.529349 32.704956 11.041046 2.451667 12.984557 -4.715120 2.361078 0.622826 8.649136 -6.424501 -4.422540 -3.744803 -6.633174 7.838572 -13.336644 0.927574 19.105888 11.078209 -6.773750 1.427030 -4.152752 4.130590 -16.861422 -0.244100 1.395297 -14.738041 1.812562 -9.241245 11.950095 9.579988 2.160962 10.504429 -5.125257 6.488539 -10.640343 14.474905 3.108508 17.762800 -22.003300 4.641690 -13.142628 0.282569 30.771801 -8.405334 -3.643592 3.413997 5.592235 0.090011 3.925009 1.874711 
-0.242883 -0.303323 -0.769440 -4.380958 -2.584773 -1.343504 -3.769751 -2.253757 -1.455393 3.407086 8.387157 -10.542905 3.669687 -3.237378 34.913116 3.669687 -3.237378 34.913116 4.007053 -0.796093 10.971855 -1.535402 4.601190 -4.715430 15.368855 2.711053 7.377172 -5.604682 -1.558881 10.626060 -7.944789 0.429147 11.497870 8.969074 -7.572921 1.498889 -11.197803 7.818602 -7.444616 -0.448090 -0.020202 -11.906448 -0.694793 -3.868998 14.608158 3.588075 -0.797626 9.401870 -6.867623 2.753848 -4.763746 8.817667 5.547481 16.255754 -17.299536 3.085186 -17.586903 -2.553015 23.857132 -11.633179 -2.378934 3.862441 3.282661 2.646427 4.062923 1.508079 
-0.188247 -0.271295 -0.712648 -6.280193 -2.315382 -0.144465 -2.167660 -1.554106 -1.252635 5.556014 4.347604 -10.603374 7.031421 -0.367915 33.602783 7.031421 -0.367915 33.602783 6.322846 0.344378 16.358833 -2.578782 4.603654 -5.123436 8.042168 3.543910 -5.707985 -7.862864 -1.470291 7.353072 -6.396161 0.870846 11.883360 6.128455 -7.821961 6.924738 -7.685524 5.651205 -11.666791 0.379738 2.238933 -5.103094 -1.909397 -4.903312 14.869210 6.583069 1.393570 7.925624 -6.036376 1.458149 -6.971395 10.468399 6.661602 16.339211 -19.123175 4.463478 -18.099859 -3.561902 28.810610 -13.574039 -2.341309 3.877578 0.609252 2.769728 5.202065 0.911843 
-0.173423 -0.284511 -0.734551 -8.160680 -2.006652 1.044537 -0.558762 -0.860346 -1.030472 7.721855 0.315632 -10.816580 10.208685 2.607592 32.473557 10.208685 2.607592 32.473557 8.876878 1.234371 21.791571 -3.621544 4.598767 -5.531421 0.833554 2.718191 -18.793718 -10.143751 -1.509952 4.079176 -4.840207 1.301524 12.281004 3.259328 -7.803507 12.360692 -3.809069 3.781062 -15.993401 2.011122 4.375352 1.768103 -3.140579 -5.930762 15.153802 9.425750 3.664158 6.561407 -5.061767 0.203144 -9.196767 12.130346 7.772506 16.456692 -20.987276 5.821165 -18.660746 -5.058070 33.693180 -15.789537 -2.305635 3.894406 -2.064241 2.857773 6.342486 0.315568 
